# xmcd
#
# Track frame offsets: 
#        150
#        14231
#        35721
#        53435
#        67211
#        83341
#        96881
#        113449
#        130866
#        145371
#        159337
#        184466
#        203186
#        219392
#
# Disc length: 3091 seconds
#
# Revision: 0
# Processed by: cddbd v1.5.2PL0 Copyright (c) Steve Scherf et al.
# Submitted via: ExactAudioCopy v1.0b4
#
DISCID=c60c110e
DTITLE=Ray Fuller And The Bluesrockers - Long BLack Train
DYEAR=2016
DGENRE=Blues
TTITLE0=Burn Me Up
TTITLE1=Devil's Den
TTITLE2=Voodoo Mama
TTITLE3=Hip Shakin' Mama
TTITLE4=Cold Day In Hell
TTITLE5=Long Black Train
TTITLE6=Louisiana Woman
TTITLE7=Let's Get Dirty
TTITLE8=Somethin' Shakin'
TTITLE9=New Tattoo
TTITLE10=Whiskey Drinkin' Woman
TTITLE11=Pipeline Blues
TTITLE12=Evil On Your Mind
TTITLE13=You're Got The Blues
EXTD=
EXTT0=
EXTT1=
EXTT2=
EXTT3=
EXTT4=
EXTT5=
EXTT6=
EXTT7=
EXTT8=
EXTT9=
EXTT10=
EXTT11=
EXTT12=
EXTT13=
PLAYORDER=
